<svg width="512" height="319" viewBox="0 0 512 319" fill="none" xmlns="http://www.w3.org/2000/svg">
<g clip-path="url(#clip0)">
<path d="M512 0.5H0V318.5H512V0.5Z" fill="#F20823"/>
<mask id="mask0" mask-type="alpha" maskUnits="userSpaceOnUse" x="0" y="0" width="512" height="319">
<path d="M512 0.5H0V318.5H512V0.5Z" fill="#F20823"/>
</mask>
<g mask="url(#mask0)">
<path d="M558.968 253.455L337.411 39.5L-108.999 501.771L112.557 715.726L558.968 253.455Z" fill="white" fill-opacity="0.1"/>
<path d="M350.664 -239.882L129.107 -25.927L617.411 479.726L838.968 265.772L350.664 -239.882Z" fill="#FF2424"/>
<path opacity="0.7" d="M325.53 66.4751C325.193 66.4751 324.87 66.6088 324.632 66.8469L317.898 73.5817C317.402 74.0774 317.402 74.8812 317.898 75.3769L330.123 87.6024C330.619 88.0982 331.423 88.0982 331.918 87.6025L336.14 83.3815C336.635 82.8858 336.635 82.082 336.14 81.5863L329.93 75.3769C329.434 74.8812 329.434 74.0774 329.93 73.5817L334.87 68.6421C335.67 67.8424 335.103 66.4751 333.973 66.4751H325.53Z" fill="white"/>
<path d="M333.713 72.3579C332.914 73.1576 333.48 74.5249 334.611 74.5249H343.053C343.39 74.5249 343.713 74.3912 343.951 74.1531L350.686 67.4183C351.182 66.9226 351.182 66.1188 350.686 65.6231L338.46 53.3976C337.965 52.9019 337.161 52.9019 336.665 53.3976L332.444 57.6189C331.948 58.1146 331.948 58.9184 332.444 59.4141L338.653 65.6231C339.149 66.1188 339.149 66.9226 338.653 67.4183L333.713 72.3579Z" fill="white"/>
<path d="M373.254 62.3888C371.471 62.3888 369.985 62.8345 368.722 63.6145V56.2605H363.634V83.0024H368.091V81.851C369.502 82.9281 371.285 83.5595 373.514 83.5595C379.048 83.5595 382.762 78.9911 382.762 72.9742C382.762 66.8458 379.011 62.3888 373.254 62.3888ZM372.697 79.0654C369.317 79.0654 368.091 76.614 368.091 72.9742C368.091 69.3343 369.354 66.883 372.511 66.883C375.891 66.883 377.414 69.6314 377.414 72.9742C377.414 76.3541 375.965 79.0654 372.697 79.0654Z" fill="white"/>
<path d="M402.485 66.0287C401.074 63.3545 398.177 62.3888 394.648 62.3888C389.82 62.3888 387.071 64.6916 386.068 67.9972L390.637 69.4457C391.268 67.6258 393.162 66.9944 394.648 66.9944C397.025 66.9944 398.102 67.8486 398.325 69.7057C394.574 70.2628 391.677 70.7085 389.745 71.4142C386.514 72.6028 385.363 74.6827 385.363 77.4683C385.363 80.811 387.74 83.5595 392.048 83.5595C395.131 83.5595 397.099 82.6681 398.882 80.551V83.0024H403.302V70.7457C403.302 68.9258 403.265 67.5144 402.485 66.0287ZM397.768 76.9112C397.359 77.7654 395.911 79.5854 393.125 79.5854C391.38 79.5854 390.303 78.7683 390.303 77.394C390.303 76.3912 390.897 75.6855 392.382 75.0912C393.534 74.6827 394.908 74.3856 398.288 73.8284C398.251 74.7941 398.177 76.0569 397.768 76.9112Z" fill="white"/>
<path d="M418.716 62.3517C415.819 62.3517 413.665 63.3917 412.216 65.0259V62.946H407.722V83.0024H412.848V72.8256C412.848 67.8487 415.373 67.1058 417.119 67.1058C421.427 67.1058 421.427 71.7114 421.427 73.5313V83.0024H426.553V71.7485C426.553 70.0771 426.553 62.3517 418.716 62.3517Z" fill="white"/>
<path d="M439.477 83.5595C444.12 83.5595 447.426 81.1825 448.577 76.9112L443.414 75.8341C442.82 77.7654 441.743 78.8425 439.477 78.8425C436.432 78.8425 434.872 76.4655 434.872 72.9742C434.872 69.6314 436.283 67.1058 439.477 67.1058C441.334 67.1058 442.931 68.3315 443.526 70.4114L448.577 69.0743C447.686 64.9516 444.269 62.3888 439.552 62.3888C433.423 62.3888 429.523 66.883 429.523 72.9742C429.523 78.9911 433.238 83.5595 439.477 83.5595Z" fill="white"/>
<path d="M467.565 66.0287C466.154 63.3545 463.257 62.3888 459.728 62.3888C454.9 62.3888 452.152 64.6916 451.149 67.9972L455.717 69.4457C456.349 67.6258 458.243 66.9944 459.728 66.9944C462.105 66.9944 463.183 67.8486 463.405 69.7057C459.654 70.2628 456.757 70.7085 454.826 71.4142C451.594 72.6028 450.443 74.6827 450.443 77.4683C450.443 80.811 452.82 83.5595 457.129 83.5595C460.211 83.5595 462.18 82.6681 463.963 80.551V83.0024H468.382V70.7457C468.382 68.9258 468.345 67.5144 467.565 66.0287ZM462.848 76.9112C462.44 77.7654 460.991 79.5854 458.206 79.5854C456.46 79.5854 455.383 78.7683 455.383 77.394C455.383 76.3912 455.977 75.6855 457.463 75.0912C458.614 74.6827 459.988 74.3856 463.368 73.8284C463.331 74.7941 463.257 76.0569 462.848 76.9112Z" fill="white"/>
<path opacity="0.86" d="M40.03 222.785C43.184 222.785 45.312 221.075 46.129 218.377L44.115 217.826C43.564 219.726 42.215 220.904 40.03 220.904C37.123 220.904 35.66 218.795 35.66 215.66C35.679 212.525 37.123 210.416 40.03 210.416C42.215 210.416 43.564 211.594 44.115 213.494L46.129 212.943C45.312 210.245 43.184 208.535 40.03 208.535C35.945 208.535 33.57 211.423 33.57 215.66C33.57 219.897 35.945 222.785 40.03 222.785ZM53.3765 211.955C51.8945 211.955 50.7545 212.525 49.9945 213.456V208.82H48.2085V222.5H50.2225V217.161C50.2225 214.729 51.4005 213.836 52.8445 213.836C55.0105 213.836 55.4285 215.869 55.4285 217.465V222.5H57.4425V216.8C57.4425 215.223 56.9295 211.955 53.3765 211.955ZM67.8969 213.912C67.2699 212.563 65.8449 211.955 64.0019 211.955C61.6459 211.955 60.2209 213.076 59.7269 214.843L61.5699 215.413C61.9309 214.254 62.9189 213.798 64.0019 213.798C65.5789 213.798 66.2439 214.463 66.3199 215.85C64.6479 216.097 62.9569 216.325 61.7789 216.667C60.1829 217.18 59.3469 218.149 59.3469 219.707C59.3469 221.379 60.5439 222.785 62.8049 222.785C64.4769 222.785 65.6739 222.196 66.5099 220.999V222.5H68.2579V216.173C68.2579 215.337 68.2199 214.596 67.8969 213.912ZM63.1659 221.17C61.8929 221.17 61.3039 220.486 61.3039 219.688C61.3039 218.871 61.9119 218.453 62.7289 218.168C63.5839 217.902 64.7429 217.75 66.2819 217.522C66.2819 217.997 66.2629 218.662 66.0919 219.137C65.8449 220.125 64.8569 221.17 63.1659 221.17ZM73.4513 212.829C73.0713 213.076 72.7483 213.456 72.5013 213.874V212.24H70.7343V222.5H72.7293V217.313C72.7293 216.116 73.0713 215.033 74.0403 214.425C74.7053 213.969 75.5983 213.931 76.2633 214.102V212.24C75.3513 212.069 74.2303 212.24 73.4513 212.829ZM78.2534 222.5H80.2484V208.535H78.2534V222.5ZM84.6497 217.921H92.3067C92.5157 214.254 90.6727 211.955 87.5377 211.955C84.5357 211.955 82.5217 214.102 82.5217 217.465C82.5217 220.619 84.5737 222.785 87.6517 222.785C89.6277 222.785 91.3567 221.74 92.1547 219.897L90.2167 219.27C89.7037 220.334 88.7727 220.904 87.5377 220.904C85.8087 220.904 84.8017 219.84 84.6497 217.921ZM87.6137 213.722C89.1907 213.722 90.0647 214.577 90.2737 216.382H84.7067C84.9537 214.653 85.9417 213.722 87.6137 213.722ZM98.3241 222.785C100.927 222.785 102.504 221.55 102.504 219.536C102.504 217.94 101.611 217.161 99.0271 216.496C96.6141 215.888 96.1581 215.603 96.1581 214.938C96.1581 214.159 96.9751 213.665 98.1721 213.703C99.4261 213.76 100.262 214.349 100.414 215.337L102.447 214.976C102.2 213.152 100.528 211.955 98.1531 211.955C95.7591 211.955 94.1631 213.171 94.1631 215.033C94.1631 216.534 95.0561 217.275 97.6971 217.978C100.11 218.624 100.452 218.833 100.452 219.612C100.452 220.486 99.7111 221.037 98.4571 221.037C97.0891 221.037 96.1201 220.372 95.8731 219.308L93.8401 219.631C94.1821 221.626 95.8351 222.785 98.3241 222.785ZM116.285 215.28C117.178 214.748 117.729 213.741 117.729 212.506C117.729 210.625 116.38 208.82 113.777 208.82H108.4V222.5H114.29C116.893 222.5 118.375 220.923 118.375 218.51C118.375 217.066 117.634 215.85 116.285 215.28ZM110.414 210.682H113.758C114.936 210.682 115.696 211.461 115.696 212.525C115.696 213.703 114.841 214.406 113.758 214.406H110.414V210.682ZM113.986 220.619H110.414V216.268H114.119C115.487 216.268 116.361 217.237 116.361 218.472C116.361 219.802 115.335 220.619 113.986 220.619ZM128.255 213.912C127.628 212.563 126.203 211.955 124.36 211.955C122.004 211.955 120.579 213.076 120.085 214.843L121.928 215.413C122.289 214.254 123.277 213.798 124.36 213.798C125.937 213.798 126.602 214.463 126.678 215.85C125.006 216.097 123.315 216.325 122.137 216.667C120.541 217.18 119.705 218.149 119.705 219.707C119.705 221.379 120.902 222.785 123.163 222.785C124.835 222.785 126.032 222.196 126.868 220.999V222.5H128.616V216.173C128.616 215.337 128.578 214.596 128.255 213.912ZM123.524 221.17C122.251 221.17 121.662 220.486 121.662 219.688C121.662 218.871 122.27 218.453 123.087 218.168C123.942 217.902 125.101 217.75 126.64 217.522C126.64 217.997 126.621 218.662 126.45 219.137C126.203 220.125 125.215 221.17 123.524 221.17ZM133.81 212.829C133.43 213.076 133.107 213.456 132.86 213.874V212.24H131.093V222.5H133.088V217.313C133.088 216.116 133.43 215.033 134.399 214.425C135.064 213.969 135.957 213.931 136.622 214.102V212.24C135.71 212.069 134.589 212.24 133.81 212.829ZM143.571 211.955C142.089 211.955 140.949 212.525 140.189 213.475V212.24H138.403V222.5H140.417V217.161C140.417 214.729 141.595 213.836 143.039 213.836C145.205 213.836 145.623 215.869 145.623 217.465V222.5H147.637V216.8C147.637 215.223 147.124 211.955 143.571 211.955ZM151.539 217.921H159.196C159.405 214.254 157.562 211.955 154.427 211.955C151.425 211.955 149.411 214.102 149.411 217.465C149.411 220.619 151.463 222.785 154.541 222.785C156.517 222.785 158.246 221.74 159.044 219.897L157.106 219.27C156.593 220.334 155.662 220.904 154.427 220.904C152.698 220.904 151.691 219.84 151.539 217.921ZM154.503 213.722C156.08 213.722 156.954 214.577 157.163 216.382H151.596C151.843 214.653 152.831 213.722 154.503 213.722ZM165.214 222.785C167.817 222.785 169.394 221.55 169.394 219.536C169.394 217.94 168.501 217.161 165.917 216.496C163.504 215.888 163.048 215.603 163.048 214.938C163.048 214.159 163.865 213.665 165.062 213.703C166.316 213.76 167.152 214.349 167.304 215.337L169.337 214.976C169.09 213.152 167.418 211.955 165.043 211.955C162.649 211.955 161.053 213.171 161.053 215.033C161.053 216.534 161.946 217.275 164.587 217.978C167 218.624 167.342 218.833 167.342 219.612C167.342 220.486 166.601 221.037 165.347 221.037C163.979 221.037 163.01 220.372 162.763 219.308L160.73 219.631C161.072 221.626 162.725 222.785 165.214 222.785Z" fill="white"/>
<g opacity="0.97" filter="url(#filter0_d)">
<path opacity="0.97" d="M41.034 246.514C40.228 246.514 39.266 246.722 38.434 247.164L38.668 243.082H45.766V239.78H35.548L34.976 249.738L37.966 250.648C38.382 250.258 39.188 249.686 40.514 249.686C42.126 249.686 43.452 250.986 43.452 252.598C43.452 254.21 42.126 255.51 40.514 255.51C39.292 255.51 38.044 254.678 37.706 253.352L34.3 254.262C35.08 257.018 37.55 258.89 40.384 258.89C43.92 258.89 47.014 256.134 47.014 252.598C47.014 249.062 44.57 246.514 41.034 246.514ZM53.3805 258.5H56.9945V239.78H53.3805L49.8705 241.886V245.786L53.3805 243.628V258.5ZM69.7892 246.774L73.5852 243.108V239.78H61.8852V243.108H69.3992L64.3552 247.294L65.9412 250.076C66.3832 249.816 66.8772 249.66 67.3972 249.66C69.1132 249.66 70.3352 250.986 70.3352 252.598C70.3352 254.21 69.0092 255.51 67.3972 255.51C66.1492 255.51 64.9532 254.73 64.5892 253.352L61.1572 254.262C61.9632 257.044 64.5892 258.838 67.3972 258.838C70.9332 258.838 73.9232 256.134 73.9232 252.598C73.9232 249.972 72.4672 247.58 69.7892 246.774ZM80.5485 258.5H84.1625V239.78H80.5485L77.0385 241.886V245.786L80.5485 243.628V258.5ZM100.451 258.5H104.273L110.539 243.108V239.78H98.7353V243.108H106.743L100.451 258.5ZM124.526 248.438C125.488 247.346 125.956 246.202 125.956 244.772C125.956 241.522 123.46 239.39 119.924 239.39C116.388 239.39 113.892 241.522 113.892 244.772C113.892 246.202 114.412 247.372 115.348 248.438C114.074 249.556 113.398 251.168 113.398 252.884C113.398 256.368 116.128 258.89 119.924 258.89C123.72 258.89 126.476 256.368 126.476 252.884C126.476 251.168 125.774 249.53 124.526 248.438ZM119.924 242.692C121.276 242.692 122.212 243.368 122.212 244.772C122.212 246.176 121.276 246.826 119.924 246.826C118.572 246.826 117.636 246.176 117.636 244.772C117.636 243.368 118.572 242.692 119.924 242.692ZM119.924 255.562C118.26 255.562 117.142 254.652 117.142 252.884C117.142 251.142 118.26 250.18 119.924 250.18C121.588 250.18 122.732 251.142 122.732 252.884C122.732 254.652 121.588 255.562 119.924 255.562ZM137.475 258.5H141.063V255.588H142.727V252.286H141.063V247.606H137.475V252.286H133.393L139.295 239.78H135.239L129.337 252.286V255.588H137.475V258.5ZM155.005 251.48C157.241 249.53 158.437 248.516 158.437 245.734C158.437 241.964 155.707 239.39 152.041 239.39C148.037 239.39 145.333 241.808 145.333 245.656H148.973C148.921 244.096 150.169 242.718 151.963 242.718C153.679 242.718 154.797 243.966 154.797 245.682C154.797 246.488 154.355 247.398 153.185 248.438L145.333 255.406V258.474H158.437V255.146H150.819L155.005 251.48ZM178.169 246.514C177.363 246.514 176.401 246.722 175.569 247.164L175.803 243.082H182.901V239.78H172.683L172.111 249.738L175.101 250.648C175.517 250.258 176.323 249.686 177.649 249.686C179.261 249.686 180.587 250.986 180.587 252.598C180.587 254.21 179.261 255.51 177.649 255.51C176.427 255.51 175.179 254.678 174.841 253.352L171.435 254.262C172.215 257.018 174.685 258.89 177.519 258.89C181.055 258.89 184.149 256.134 184.149 252.598C184.149 249.062 181.705 246.514 178.169 246.514ZM194.883 258.5H198.471V255.588H200.135V252.286H198.471V247.606H194.883V252.286H190.801L196.703 239.78H192.647L186.745 252.286V255.588H194.883V258.5ZM209.475 246.514C208.669 246.514 207.707 246.722 206.875 247.164L207.109 243.082H214.207V239.78H203.989L203.417 249.738L206.407 250.648C206.823 250.258 207.629 249.686 208.955 249.686C210.567 249.686 211.893 250.986 211.893 252.598C211.893 254.21 210.567 255.51 208.955 255.51C207.733 255.51 206.485 254.678 206.147 253.352L202.741 254.262C203.521 257.018 205.991 258.89 208.825 258.89C212.361 258.89 215.455 256.134 215.455 252.598C215.455 249.062 213.011 246.514 209.475 246.514ZM226.19 258.5H229.778V255.588H231.442V252.286H229.778V247.606H226.19V252.286H222.108L228.01 239.78H223.954L218.052 252.286V255.588H226.19V258.5ZM248.228 258.5H251.842V239.78H248.228L244.718 241.886V245.786L248.228 243.628V258.5ZM257.721 258.5H261.543L267.809 243.108V239.78H256.005V243.108H264.013L257.721 258.5ZM280.079 251.48C282.315 249.53 283.511 248.516 283.511 245.734C283.511 241.964 280.781 239.39 277.115 239.39C273.111 239.39 270.407 241.808 270.407 245.656H274.047C273.995 244.096 275.243 242.718 277.037 242.718C278.753 242.718 279.871 243.966 279.871 245.682C279.871 246.488 279.429 247.398 278.259 248.438L270.407 255.406V258.474H283.511V255.146H275.893L280.079 251.48ZM289.869 258.5H293.483V239.78H289.869L286.359 241.886V245.786L289.869 243.628V258.5Z" fill="white" fill-opacity="0.01"/>
</g>
<g opacity="0.97">
<path opacity="0.97" d="M41.034 246.514C40.228 246.514 39.266 246.722 38.434 247.164L38.668 243.082H45.766V239.78H35.548L34.976 249.738L37.966 250.648C38.382 250.258 39.188 249.686 40.514 249.686C42.126 249.686 43.452 250.986 43.452 252.598C43.452 254.21 42.126 255.51 40.514 255.51C39.292 255.51 38.044 254.678 37.706 253.352L34.3 254.262C35.08 257.018 37.55 258.89 40.384 258.89C43.92 258.89 47.014 256.134 47.014 252.598C47.014 249.062 44.57 246.514 41.034 246.514ZM53.3805 258.5H56.9945V239.78H53.3805L49.8705 241.886V245.786L53.3805 243.628V258.5ZM69.7892 246.774L73.5852 243.108V239.78H61.8852V243.108H69.3992L64.3552 247.294L65.9412 250.076C66.3832 249.816 66.8772 249.66 67.3972 249.66C69.1132 249.66 70.3352 250.986 70.3352 252.598C70.3352 254.21 69.0092 255.51 67.3972 255.51C66.1492 255.51 64.9532 254.73 64.5892 253.352L61.1572 254.262C61.9632 257.044 64.5892 258.838 67.3972 258.838C70.9332 258.838 73.9232 256.134 73.9232 252.598C73.9232 249.972 72.4672 247.58 69.7892 246.774ZM80.5485 258.5H84.1625V239.78H80.5485L77.0385 241.886V245.786L80.5485 243.628V258.5ZM100.451 258.5H104.273L110.539 243.108V239.78H98.7353V243.108H106.743L100.451 258.5ZM124.526 248.438C125.488 247.346 125.956 246.202 125.956 244.772C125.956 241.522 123.46 239.39 119.924 239.39C116.388 239.39 113.892 241.522 113.892 244.772C113.892 246.202 114.412 247.372 115.348 248.438C114.074 249.556 113.398 251.168 113.398 252.884C113.398 256.368 116.128 258.89 119.924 258.89C123.72 258.89 126.476 256.368 126.476 252.884C126.476 251.168 125.774 249.53 124.526 248.438ZM119.924 242.692C121.276 242.692 122.212 243.368 122.212 244.772C122.212 246.176 121.276 246.826 119.924 246.826C118.572 246.826 117.636 246.176 117.636 244.772C117.636 243.368 118.572 242.692 119.924 242.692ZM119.924 255.562C118.26 255.562 117.142 254.652 117.142 252.884C117.142 251.142 118.26 250.18 119.924 250.18C121.588 250.18 122.732 251.142 122.732 252.884C122.732 254.652 121.588 255.562 119.924 255.562ZM137.475 258.5H141.063V255.588H142.727V252.286H141.063V247.606H137.475V252.286H133.393L139.295 239.78H135.239L129.337 252.286V255.588H137.475V258.5ZM155.005 251.48C157.241 249.53 158.437 248.516 158.437 245.734C158.437 241.964 155.707 239.39 152.041 239.39C148.037 239.39 145.333 241.808 145.333 245.656H148.973C148.921 244.096 150.169 242.718 151.963 242.718C153.679 242.718 154.797 243.966 154.797 245.682C154.797 246.488 154.355 247.398 153.185 248.438L145.333 255.406V258.474H158.437V255.146H150.819L155.005 251.48ZM178.169 246.514C177.363 246.514 176.401 246.722 175.569 247.164L175.803 243.082H182.901V239.78H172.683L172.111 249.738L175.101 250.648C175.517 250.258 176.323 249.686 177.649 249.686C179.261 249.686 180.587 250.986 180.587 252.598C180.587 254.21 179.261 255.51 177.649 255.51C176.427 255.51 175.179 254.678 174.841 253.352L171.435 254.262C172.215 257.018 174.685 258.89 177.519 258.89C181.055 258.89 184.149 256.134 184.149 252.598C184.149 249.062 181.705 246.514 178.169 246.514ZM194.883 258.5H198.471V255.588H200.135V252.286H198.471V247.606H194.883V252.286H190.801L196.703 239.78H192.647L186.745 252.286V255.588H194.883V258.5ZM209.475 246.514C208.669 246.514 207.707 246.722 206.875 247.164L207.109 243.082H214.207V239.78H203.989L203.417 249.738L206.407 250.648C206.823 250.258 207.629 249.686 208.955 249.686C210.567 249.686 211.893 250.986 211.893 252.598C211.893 254.21 210.567 255.51 208.955 255.51C207.733 255.51 206.485 254.678 206.147 253.352L202.741 254.262C203.521 257.018 205.991 258.89 208.825 258.89C212.361 258.89 215.455 256.134 215.455 252.598C215.455 249.062 213.011 246.514 209.475 246.514ZM226.19 258.5H229.778V255.588H231.442V252.286H229.778V247.606H226.19V252.286H222.108L228.01 239.78H223.954L218.052 252.286V255.588H226.19V258.5ZM248.228 258.5H251.842V239.78H248.228L244.718 241.886V245.786L248.228 243.628V258.5ZM257.721 258.5H261.543L267.809 243.108V239.78H256.005V243.108H264.013L257.721 258.5ZM280.079 251.48C282.315 249.53 283.511 248.516 283.511 245.734C283.511 241.964 280.781 239.39 277.115 239.39C273.111 239.39 270.407 241.808 270.407 245.656H274.047C273.995 244.096 275.243 242.718 277.037 242.718C278.753 242.718 279.871 243.966 279.871 245.682C279.871 246.488 279.429 247.398 278.259 248.438L270.407 255.406V258.474H283.511V255.146H275.893L280.079 251.48ZM289.869 258.5H293.483V239.78H289.869L286.359 241.886V245.786L289.869 243.628V258.5Z" fill="white"/>
</g>
<path d="M421.603 262.699H414.902L419.09 236.96H425.792L421.603 262.699ZM409.264 236.96L402.876 254.664L402.12 250.851V250.853L399.866 239.277C399.866 239.277 399.593 236.96 396.687 236.96H386.125L386.001 237.396C386.001 237.396 389.231 238.068 393.011 240.338L398.833 262.7H405.815L416.477 236.96H409.264ZM461.973 262.699H468.127L462.762 236.959H457.375C454.887 236.959 454.281 238.877 454.281 238.877L444.287 262.699H451.272L452.669 258.876H461.188L461.973 262.699ZM454.599 253.594L458.12 243.962L460.101 253.594H454.599ZM444.811 243.15L445.767 237.622C445.767 237.622 442.816 236.5 439.74 236.5C436.414 236.5 428.517 237.953 428.517 245.021C428.517 251.671 437.786 251.753 437.786 255.246C437.786 258.739 429.472 258.113 426.728 255.91L425.732 261.69C425.732 261.69 428.724 263.143 433.296 263.143C437.869 263.143 444.768 260.775 444.768 254.331C444.768 247.639 435.416 247.016 435.416 244.106C435.417 241.196 441.943 241.57 444.811 243.15Z" fill="white"/>
<path d="M402.119 250.852L399.865 239.277C399.865 239.277 399.592 236.959 396.686 236.959H386.124L386 237.395C386 237.395 391.076 238.447 395.946 242.389C400.601 246.156 402.119 250.852 402.119 250.852Z" fill="#FFBEC6"/>
<path d="M78.7465 48.5H43.2535C37.5907 48.5 33 53.0907 33 58.7535V82.4155C33 88.0784 37.5907 92.669 43.2535 92.669H78.7465C84.4094 92.669 89 88.0784 89 82.4155V58.7535C89 53.0907 84.4094 48.5 78.7465 48.5Z" fill="url(#paint0_linear)"/>
</g>
<mask id="mask1" mask-type="alpha" maskUnits="userSpaceOnUse" x="33" y="48" width="56" height="45">
<path d="M78.7465 48.5H43.2535C37.5907 48.5 33 53.0907 33 58.7535V82.4155C33 88.0784 37.5907 92.669 43.2535 92.669H78.7465C84.4094 92.669 89 88.0784 89 82.4155V58.7535C89 53.0907 84.4094 48.5 78.7465 48.5Z" fill="white"/>
</mask>
<g mask="url(#mask1)">
<path d="M46.4086 47.7114V95.8241" stroke="#FF8C9A" stroke-width="1.57746"/>
<path d="M74.8024 47.7112V95.8239" stroke="#FF8C9A" stroke-width="1.57746"/>
<path d="M45.6194 73.7393H74.8025" stroke="#FF8C9A" stroke-width="1.57746"/>
<path d="M55.8728 48.1055V61.9083C55.8728 63.6507 57.2853 65.0632 59.0277 65.0632H74.408" stroke="#FF8C9A" stroke-width="1.57746"/>
<path d="M66.1264 47.7112V65.0633" stroke="#FF8C9A" stroke-width="1.57746"/>
<path d="M55.873 74.5281V95.8239" stroke="#FF8C9A" stroke-width="1.57746"/>
<path d="M66.1264 74.5281V95.8239" stroke="#FF8C9A" stroke-width="1.57746"/>
</g>
</g>
<defs>
<filter id="filter0_d" x="31.3" y="238.39" width="265.183" height="25.5" filterUnits="userSpaceOnUse" color-interpolation-filters="sRGB">
<feFlood flood-opacity="0" result="BackgroundImageFix"/>
<feColorMatrix in="SourceAlpha" type="matrix" values="0 0 0 0 0 0 0 0 0 0 0 0 0 0 0 0 0 0 127 0"/>
<feOffset dy="2"/>
<feGaussianBlur stdDeviation="1.5"/>
<feColorMatrix type="matrix" values="0 0 0 0 0.6375 0 0 0 0 0.00265622 0 0 0 0 0.0778748 0 0 0 0.44 0"/>
<feBlend mode="normal" in2="BackgroundImageFix" result="effect1_dropShadow"/>
<feBlend mode="normal" in="SourceGraphic" in2="effect1_dropShadow" result="shape"/>
</filter>
<linearGradient id="paint0_linear" x1="33" y1="72.5" x2="89" y2="70.5" gradientUnits="userSpaceOnUse">
<stop stop-color="white" stop-opacity="0.98"/>
<stop offset="1" stop-color="white" stop-opacity="0.92"/>
</linearGradient>
<clipPath id="clip0">
<rect width="512" height="318" fill="white" transform="translate(0 0.5)"/>
</clipPath>
</defs>
</svg>
