<?xml version="1.0" encoding="utf-8"?>
<!-- Generator: Adobe Illustrator 25.2.0, SVG Export Plug-In . SVG Version: 6.00 Build 0)  -->
<svg version="1.1" id="Layer_1" xmlns="http://www.w3.org/2000/svg" xmlns:xlink="http://www.w3.org/1999/xlink" x="0px" y="0px"
	 viewBox="0 0 1920 1080" style="enable-background:new 0 0 1920 1080;" xml:space="preserve">
<style type="text/css">
	.st0{display:none;fill:#FEFEFE;}
	.st1{fill:#202020;}
	.st2{fill:#212121;}
	.st3{fill:#CFCF17;}
	.st4{fill:#CFCF16;}
	.st5{fill:#CFCF18;}
	.st6{fill:#D0D019;}
	.st7{fill:#D0D018;}
	.st8{fill:#232323;}
	.st9{fill:#CFCF2A;}
	.st10{fill:#231F20;}
</style>
<path class="st0" d="M830.34,372.28c75.23,0,150.46,0.02,225.68-0.07c2.56,0,3.07,0.5,3.07,3.06c-0.09,80.46-0.09,160.92,0,241.38
	c0,2.56-0.5,3.06-3.07,3.06c-150.46-0.08-300.91-0.08-451.37,0c-2.56,0-3.07-0.5-3.07-3.06c0.09-80.46,0.09-160.92,0-241.38
	c0-2.56,0.5-3.06,3.07-3.06C679.89,372.3,755.11,372.28,830.34,372.28z"/>
<path class="st1" d="M989,492.2c1.75-2.83,3.71-5.29,4.9-8.08c2.13-5.01,5.69-6.38,11.17-4.96c-1.23,1.97-2.42,3.9-3.64,5.82
	c-4.14,6.47-8.16,13.02-12.48,19.37c-3.64,5.35-8.4,7.01-13.86,5.14c-0.96-0.33-3.37-0.41-2.23-2.26c0.98-1.6,1.12-4.71,4.24-4.09
	c5.06,1.01,6.01,0.12,4.94-4.95c-1.23-5.83-2.4-11.66-3.7-17.47c-0.39-1.77-0.06-2.33,1.89-2.37c5.7-0.13,5.76-0.17,6.81,5.51
	c0.43,2.32,0.85,4.64,1.3,6.95C988.41,491.15,988.65,491.47,989,492.2z"/>
<path class="st1" d="M862.77,492.4c0.66-3.49,1.15-8.24,2.55-12.7c1.06-3.38,4.54-1.51,6.85-1.53c2.26-0.02,0.94,1.96,0.75,3.1
	c-0.48,2.81-1.09,5.61-1.58,8.42c-0.32,1.86-0.72,3.9,1.72,4.65c2.5,0.77,4.45-0.31,5.57-2.53c1.42-2.8,1.61-5.97,2.19-9
	c0.85-4.42,3.81-6.2,7.99-4.79c1.4,0.47,0.78,1.29,0.64,2.05c-1.17,6.22-2.33,12.44-3.54,18.64c-0.36,1.84-6.69,3.84-7.59,2.17
	c-1.23-2.29-1.96-0.69-2.87-0.31C868.87,503.34,862.86,500.04,862.77,492.4z"/>
<path class="st2" d="M824.2,478.31c0.41,0.04,2.02-0.14,3.35,0.38c1.23,0.49,4.04-0.14,3.35,2.13c-0.58,1.88-0.7,5.76-4.99,3.78
	c-1.59-0.74-3.63-0.82-5.51-0.42c-0.86,0.18-1.86,0.34-1.99,1.35c-0.14,1.15,0.98,1.35,1.78,1.55c1.81,0.45,3.69,0.6,5.46,1.15
	c4.91,1.53,6.12,7.05,2.35,10.61c-4.61,4.36-13.91,3.85-18.79,1.71c-1.77-0.78-0.58-2.01-0.05-2.7c0.87-1.14,0.48-3.98,3.33-2.81
	c2.21,0.91,4.5,1.44,6.91,1.27c1.23-0.09,2.85-0.09,2.95-1.59c0.1-1.45-1.55-1.26-2.58-1.49c-1.33-0.3-2.7-0.47-4.02-0.82
	c-2.52-0.68-4.67-1.89-5.12-4.77c-0.47-3.02,0.78-5.33,3.23-7.02C816.65,478.71,819.82,478.23,824.2,478.31z"/>
<path class="st3" d="M721.42,504.41c2.15,6.2,2.75,11.57,3.55,16.86c1.16,7.73,1.88,15.52,0.99,23.36
	c-0.24,2.11-0.59,4.17-1.47,6.11c-0.6,1.33-1.48,2.29-3.09,2.26c-1.62-0.03-2.47-1.06-2.98-2.4c-0.53-1.38-1.18-2.79-1.31-4.22
	C715.84,532.49,717.77,518.93,721.42,504.41z"/>
<path class="st3" d="M735.04,482.2c10.34-9.95,21.02-19.31,34.62-24.54c0.69-0.27,1.43-0.43,2.15-0.61
	c1.73-0.45,3.25-0.08,4.29,1.42c1.06,1.54,0.2,2.84-0.77,4.03c-2.54,3.16-5.95,5.24-9.32,7.35
	C756.46,475.83,745.84,479.16,735.04,482.2z"/>
<path class="st3" d="M708.11,482.5c-13.35-4.15-26.64-8.25-37.66-17.24c-2.03-1.66-5.13-3.51-3.44-6.61
	c1.87-3.42,5.08-1.4,7.63-0.45c9.2,3.47,16.9,9.37,24.36,15.57C702.23,476.44,705.67,478.92,708.11,482.5z"/>
<path class="st4" d="M735.23,497.29c4.85,1.69,9.78,3.18,14.53,5.12c7.95,3.23,15.89,6.56,22.67,12c2.19,1.76,5.26,3.76,3.53,6.95
	c-1.86,3.44-5.17,1.29-7.65,0.35c-9.33-3.52-17.16-9.5-24.72-15.82C740.58,503.38,737.4,501.02,735.23,497.29z"/>
<path class="st3" d="M721.57,474.42c-1.91-5.14-2.7-10.49-3.5-15.81c-1.31-8.72-2.12-17.48-0.47-26.27
	c0.14-0.73,0.31-1.46,0.57-2.15c0.58-1.57,1.42-3.12,3.3-3.12c2.04,0,3.03,1.63,3.54,3.35c1.25,4.22,1.49,8.6,1.38,12.94
	C726.11,453.89,724.41,464.22,721.57,474.42z"/>
<path class="st4" d="M707.91,497.24c-3.58,4.82-8.02,8.38-12.5,11.89c-5.53,4.33-11.2,8.46-17.66,11.35
	c-1.36,0.61-2.7,1.35-4.13,1.68c-2.29,0.53-5.1,2.18-6.66-0.85c-1.45-2.8,0.87-4.65,2.78-6.22c6.99-5.76,15.18-9.4,23.5-12.71
	C698.04,500.47,703.01,498.94,707.91,497.24z"/>
<path class="st1" d="M890.92,500.94c1.88-10.16,3.68-19.88,5.48-29.61c0.48-2.57,2.51-1.87,4.13-1.89c4.54-0.06,4.55-0.03,3.67,4.42
	c-1.46,7.42-3.26,14.79-4.29,22.26c-0.6,4.34-2.39,5.67-6.41,4.83C892.79,500.82,892.03,500.94,890.92,500.94z"/>
<path class="st5" d="M707.08,489.94c-6.76,3.24-13.46,6.25-21.11,4.18c-2.2-0.6-4.69-1.29-4.81-3.96c-0.13-2.96,2.52-3.68,4.82-4.32
	C693.63,483.71,700.31,486.87,707.08,489.94z"/>
<path class="st3" d="M735.05,489.98c7.5-3.25,14.29-6.23,22.03-4.12c2.26,0.62,4.9,1.27,4.76,4.3c-0.12,2.73-2.56,3.39-4.74,3.96
	C749.35,496.16,742.56,493.24,735.05,489.98z"/>
<path class="st3" d="M714.29,477.52c-5.53-3.75-10.68-7.62-13.29-13.86c-0.67-1.61-1.29-3.22-1.29-5.01c0-1.44,0.27-2.74,1.56-3.58
	c1.51-0.97,2.96-0.4,4.16,0.5c1.27,0.96,2.47,2.11,3.44,3.37C713.07,464.39,713.92,470.86,714.29,477.52z"/>
<path class="st3" d="M714.88,501.48c-1.13,8.61-2.06,16.09-7.96,21.74c-1.54,1.47-3.32,3.03-5.59,1.66
	c-2.22-1.34-1.86-3.68-1.32-5.73C702.06,511.29,708.01,506.72,714.88,501.48z"/>
<path class="st3" d="M728.35,478.21c0.82-8.11,1.86-15.25,7.22-20.9c1.63-1.71,3.51-3.71,6.1-2.22c2.58,1.48,1.85,4.24,1.2,6.41
	C740.62,468.91,734.99,473.47,728.35,478.21z"/>
<path class="st3" d="M728.31,501.75c6.78,4.77,12.45,9.43,14.64,17.01c0.59,2.03,1.21,4.68-1.22,6.09
	c-2.62,1.52-4.49-0.46-6.12-2.15C730.19,517.08,729.21,509.88,728.31,501.75z"/>
<path class="st6" d="M767,490c8.27-1.95,16.51-3.77,25.04-2.73c0.98,0.12,1.96,0.31,2.92,0.55c1.13,0.29,2.1,0.79,2.16,2.19
	c0.06,1.64-1.17,2.14-2.36,2.43c-2.91,0.71-5.89,0.98-8.88,0.77C779.49,492.79,773.17,491.92,767,490z"/>
<path class="st7" d="M743.93,529.77c6.67,6.27,12.75,13.07,16.02,21.83c0.52,1.39,1.03,3.04-0.65,3.99
	c-1.73,0.98-2.81-0.51-3.72-1.57c-4.19-4.87-6.72-10.65-8.92-16.6C745.71,534.88,744.84,532.32,743.93,529.77z"/>
<path class="st6" d="M676.05,489.53c-8.3,2.41-16.56,4.13-25.1,3.14c-0.86-0.1-1.75-0.16-2.57-0.41c-1.16-0.35-2.53-0.62-2.53-2.27
	c0-1.78,1.39-2.22,2.73-2.54c5.77-1.37,11.55-0.69,17.29,0.18C669.28,488.15,672.66,488.89,676.05,489.53z"/>
<path class="st7" d="M744.42,450.55c2.38-8.69,5.36-17.08,11.04-24.24c1.02-1.29,2.36-2.67,4.07-1.64c1.74,1.05,0.98,2.91,0.39,4.37
	C756.53,437.46,750.7,444.15,744.42,450.55z"/>
<path class="st7" d="M698.67,529.37c-2.42,8.61-5.31,16.98-10.92,24.1c-1.07,1.35-2.37,3.02-4.32,1.82
	c-1.78-1.1-0.85-2.92-0.27-4.37C686.52,542.46,692.43,535.81,698.67,529.37z"/>
<path class="st7" d="M698.71,450.34c-5.95-6-11.45-12.32-14.86-20.16c-0.44-1.02-0.77-2.09-1.08-3.16c-0.3-1.06,0.04-1.94,0.94-2.6
	c1.07-0.79,1.94-0.18,2.65,0.49c1.07,1.02,2.12,2.11,2.96,3.32C693.95,434.91,696.52,442.5,698.71,450.34z"/>
<path class="st6" d="M732.18,530.22c4.11,6.91,7.58,14.1,8.65,22.17c0.2,1.52,0.65,3.64-1.3,4.22c-2.24,0.67-2.86-1.59-3.5-3.07
	C732.85,546.15,732.64,538.21,732.18,530.22z"/>
<path class="st6" d="M732.36,449.58c-0.02-7.8,0.65-15.5,3.5-22.81c0.62-1.59,1.28-4.12,3.64-3.39c2.26,0.7,1.53,3.2,1.27,4.9
	C739.56,435.95,736.27,442.86,732.36,449.58z"/>
<path class="st6" d="M710.71,449.45c-4.24-6.9-7.25-14.17-8.67-22.06c-0.31-1.74-0.1-3.47,1.56-4.06c1.82-0.65,2.55,1.2,3.14,2.5
	C710.1,433.34,710.64,441.36,710.71,449.45z"/>
<path class="st7" d="M761.49,501.2c8.73-0.38,17.26,0.05,25.18,4.02c1.07,0.53,1.83,1.39,1.54,2.69c-0.33,1.47-1.71,1.42-2.73,1.39
	c-4.15-0.12-8.11-1.24-11.92-2.8C769.49,504.84,765.5,502.97,761.49,501.2z"/>
<path class="st6" d="M710.65,530.52c0.18,7.69-0.64,15.23-3.38,22.47c-0.3,0.81-0.69,1.6-1.17,2.31c-0.55,0.8-1.21,1.76-2.37,1.44
	c-1.25-0.34-1.61-1.45-1.63-2.64c-0.05-2.89,0.75-5.65,1.57-8.36C705.27,540.41,707.62,535.36,710.65,530.52z"/>
<path class="st7" d="M762.2,479.12c6.98-3.93,14.06-7.63,22.24-8.32c1.38-0.12,3.25-0.62,3.72,1.39c0.43,1.87-1.22,2.55-2.57,3.14
	C778.17,478.57,770.26,479.03,762.2,479.12z"/>
<path class="st5" d="M691.9,460.43c-6.93-4.08-13.59-8.53-18.49-15.1c-0.87-1.16-2.21-2.82-1.21-3.91c1.31-1.44,3.29-0.57,4.73,0.56
	C683.26,446.98,687.9,453.38,691.9,460.43z"/>
<path class="st7" d="M751.03,460.54c3.97-6.89,8.48-13.31,14.76-18.27c1.3-1.03,3-2.62,4.58-1.02c1.56,1.58-0.04,3.28-1.08,4.57
	C764.29,452.03,757.95,456.63,751.03,460.54z"/>
<path class="st5" d="M751.03,519.43c7.03,4,13.5,8.64,18.52,15.04c0.95,1.21,2.29,2.82,0.82,4.28c-1.47,1.46-3.07,0.1-4.3-0.84
	C759.62,532.94,755.08,526.39,751.03,519.43z"/>
<path class="st7" d="M681.11,500.8c-7.07,3.91-14.2,7.59-22.4,8.37c-1.39,0.13-3.32,0.63-3.83-1.26c-0.56-2.06,1.35-2.73,2.81-3.35
	C665.13,501.39,673.06,500.84,681.11,500.8z"/>
<path class="st7" d="M691.92,519.5c-3.67,6.7-8.19,12.7-13.96,17.68c-0.74,0.64-1.58,1.24-2.48,1.63c-1.02,0.45-2.22,0.77-3.07-0.33
	c-0.74-0.95-0.19-1.9,0.32-2.76c1.93-3.25,4.67-5.79,7.5-8.21C683.81,524.45,687.67,521.76,691.92,519.5z"/>
<path class="st7" d="M681.1,479.15c-7.58-0.01-15.01-0.51-22.07-3.19c-1.84-0.7-4.85-1.2-4.06-3.91c0.68-2.35,3.43-1.38,5.26-1.1
	C667.79,472.1,674.53,475.41,681.1,479.15z"/>
<path class="st8" d="M913.22,495.58c-0.1,3.68-2.31,5.96-5.03,5.82c-2.72-0.14-4.41-1.61-4.52-4.44c-0.1-2.84,2.42-5.29,5.28-5.07
	C911.71,492.1,913.24,493.62,913.22,495.58z"/>
<path class="st9" d="M721.55,486.21c2.37,0.34,3.76,1.56,3.66,3.97c-0.09,2.23-1.5,3.48-3.61,3.5c-2.33,0.03-3.83-1.41-3.83-3.71
	C717.78,487.65,719.33,486.44,721.55,486.21z"/>
<path class="st1" d="M942.44,481.39c-2.75-3.55-6.52-4.38-12.07-2.54c-0.9,0.3-1.2,0.07-2.02-0.43c-2.44-1.5-7.3-0.34-7.68,1.51
	c-1.98,9.6-3.89,19.22-5.83,28.83c1.56,0.72,3.1,0.17,4.54,0.43c2.92,0.51,3.87-0.87,4.24-3.57c0.31-2.27,0.49-4.66,1.63-6.79
	c5.77,4.33,13.19,2.98,17.2-3.08C945.33,491.42,945.32,485.12,942.44,481.39z M930.91,494.85c-2.79-0.04-4.44-1.93-4.25-4.85
	c0.24-3.57,2.7-5.95,5.92-5.72c2.63,0.19,3.92,1.84,3.79,4.84C936.23,492.55,933.99,494.9,930.91,494.85z"/>
<path class="st1" d="M969.06,478.38c-0.91,0.1-1.75,0.06-2,1.2c-0.29,1.35-0.81,0.58-1.46,0.22c-7.2-3.96-14.96-0.96-17.68,6.79
	c-2.77,7.92,1.99,15.63,9.58,14.81c3.25-0.35,6.33-0.89,8.77,0.04c4.45,0,4.44-0.01,5.09-3.19c0.98-4.74,2-9.48,2.96-14.22
	C975.56,477.97,975.3,477.72,969.06,478.38z M959.5,495.01c-2.97-0.09-4.14-1.81-4.09-4.57c0.07-3.57,2.49-6.2,5.6-6.05
	c2.91,0.14,4.03,1.97,4.17,4.3C965.06,492.63,962.71,495.1,959.5,495.01z"/>
<path class="st10" d="M847.64,477.86c-7.96-0.14-14.57,5.95-14.53,13.37c0.04,6.2,4.91,10.43,12.03,10.45
	c8.14,0.01,14.05-5.44,14.14-13.06C859.36,482.22,854.78,477.99,847.64,477.86z M845.59,495.17c-2.86-0.13-4.21-1.86-4.21-4.6
	c0-3.44,2.61-6.23,5.61-6.17c2.73,0.05,4.19,1.88,4.04,5.03C850.88,492.89,848.64,495.32,845.59,495.17z"/>
</svg>
