<?xml version="1.0" encoding="utf-8"?>
<!-- Generator: Adobe Illustrator 25.2.0, SVG Export Plug-In . SVG Version: 6.00 Build 0)  -->
<svg version="1.1" id="Layer_1" xmlns="http://www.w3.org/2000/svg" xmlns:xlink="http://www.w3.org/1999/xlink" x="0px" y="0px"
	 viewBox="0 0 2048 1556" style="enable-background:new 0 0 2048 1556;" xml:space="preserve">
<style type="text/css">
	.st0{display:none;fill:#FEFEFE;}
	.st1{fill:#202020;}
	.st2{fill:#212121;}
	.st3{fill:#CFCF17;}
	.st4{fill:#CFCF16;}
	.st5{fill:#CFCF18;}
	.st6{fill:#D0D019;}
	.st7{fill:#D0D018;}
	.st8{fill:#232323;}
	.st9{fill:#CFCF2A;}
	.st10{fill:#231F20;}
</style>
<path class="st0" d="M894.3,610.3c75.2,0,150.5,0,225.7-0.1c2.6,0,3.1,0.5,3.1,3.1c-0.1,80.5-0.1,160.9,0,241.4
	c0,2.6-0.5,3.1-3.1,3.1c-150.5-0.1-300.9-0.1-451.4,0c-2.6,0-3.1-0.5-3.1-3.1c0.1-80.5,0.1-160.9,0-241.4c0-2.6,0.5-3.1,3.1-3.1
	C743.9,610.3,819.1,610.3,894.3,610.3z"/>
<path class="st1" d="M1760,777.1c7.9-12.9,16.7-24.1,22.1-36.8c9.6-22.8,25.6-29.1,50.3-22.6c-5.5,9-10.9,17.8-16.4,26.5
	c-18.6,29.5-36.7,59.3-56.2,88.3c-16.4,24.4-37.8,31.9-62.4,23.4c-4.3-1.5-15.2-1.9-10-10.3c4.4-7.3,5-21.5,19.1-18.6
	c22.8,4.6,27,0.5,22.2-22.6c-5.5-26.6-10.8-53.1-16.7-79.6c-1.8-8.1-0.3-10.6,8.5-10.8c25.7-0.6,25.9-0.8,30.6,25.1
	c1.9,10.6,3.8,21.1,5.9,31.7C1757.4,772.3,1758.4,773.8,1760,777.1z"/>
<path class="st1" d="M1191.9,778c3-15.9,5.2-37.6,11.5-57.9c4.8-15.4,20.4-6.9,30.8-7c10.2-0.1,4.2,8.9,3.4,14.1
	c-2.2,12.8-4.9,25.6-7.1,38.4c-1.4,8.5-3.2,17.8,7.7,21.2c11.3,3.5,20-1.4,25.1-11.5c6.4-12.8,7.2-27.2,9.9-41
	c3.8-20.1,17.1-28.3,36-21.8c6.3,2.1,3.5,5.9,2.9,9.3c-5.3,28.3-10.5,56.7-15.9,85c-1.6,8.4-30.1,17.5-34.2,9.9
	c-5.5-10.4-8.8-3.1-12.9-1.4C1219.4,827.9,1192.3,812.9,1191.9,778z"/>
<path class="st2" d="M1018.3,713.8c1.8,0.2,9.1-0.6,15.1,1.7c5.5,2.2,18.2-0.6,15.1,9.7c-2.6,8.6-3.2,26.3-22.5,17.2
	c-7.2-3.4-16.3-3.7-24.8-1.9c-3.9,0.8-8.4,1.5-9,6.2c-0.6,5.2,4.4,6.2,8,7.1c8.1,2.1,16.6,2.7,24.6,5.2c22.1,7,27.5,32.1,10.6,48.4
	c-20.7,19.9-62.6,17.5-84.6,7.8c-8-3.6-2.6-9.2-0.2-12.3c3.9-5.2,2.2-18.1,15-12.8c9.9,4.1,20.3,6.6,31.1,5.8
	c5.5-0.4,12.8-0.4,13.3-7.2c0.4-6.6-7-5.7-11.6-6.8c-6-1.4-12.2-2.1-18.1-3.7c-11.3-3.1-21-8.6-23-21.7c-2.1-13.8,3.5-24.3,14.5-32
	C984.4,715.7,998.6,713.5,1018.3,713.8z"/>
<path class="st3" d="M555.8,832.8c9.7,28.3,12.4,52.7,16,76.8c5.2,35.2,8.5,70.7,4.5,106.5c-1.1,9.6-2.7,19-6.6,27.8
	c-2.7,6.1-6.7,10.4-13.9,10.3c-7.3-0.1-11.1-4.8-13.4-10.9c-2.4-6.3-5.3-12.7-5.9-19.2C530.6,960.8,539.3,899,555.8,832.8z"/>
<path class="st3" d="M617.1,731.6c46.5-45.3,94.6-88,155.8-111.8c3.1-1.2,6.4-2,9.7-2.8c7.8-2.1,14.6-0.4,19.3,6.5
	c4.8,7,0.9,12.9-3.5,18.4c-11.4,14.4-26.8,23.9-41.9,33.5C713.5,702.5,665.7,717.7,617.1,731.6z"/>
<path class="st3" d="M495.9,732.9C435.8,714,376,695.3,326.4,654.4c-9.1-7.6-23.1-16-15.5-30.1c8.4-15.6,22.9-6.4,34.3-2.1
	c41.4,15.8,76.1,42.7,109.6,71C469.4,705.3,484.9,716.6,495.9,732.9z"/>
<path class="st4" d="M617.9,800.3c21.8,7.7,44,14.5,65.4,23.3c35.8,14.7,71.5,29.9,102,54.7c9.9,8,23.7,17.1,15.9,31.7
	c-8.4,15.7-23.3,5.9-34.4,1.6c-42-16-77.2-43.3-111.3-72.1C642,828.1,627.7,817.3,617.9,800.3z"/>
<path class="st3" d="M556.4,696.1c-8.6-23.4-12.2-47.8-15.8-72.1c-5.9-39.7-9.5-79.7-2.1-119.7c0.6-3.3,1.4-6.7,2.6-9.8
	c2.6-7.2,6.4-14.2,14.9-14.2c9.2,0,13.6,7.4,15.9,15.3c5.6,19.2,6.7,39.2,6.2,59C576.9,602.5,569.2,649.6,556.4,696.1z"/>
<path class="st4" d="M495,800.1c-16.1,22-36.1,38.2-56.3,54.2c-24.9,19.7-50.4,38.6-79.5,51.7c-6.1,2.8-12.2,6.2-18.6,7.7
	c-10.3,2.4-23,9.9-30-3.9c-6.5-12.8,3.9-21.2,12.5-28.3c31.5-26.3,68.3-42.8,105.8-57.9C450.5,814.8,472.9,807.8,495,800.1z"/>
<path class="st1" d="M1318.6,817c8.5-46.3,16.6-90.6,24.7-134.9c2.2-11.7,11.3-8.5,18.6-8.6c20.4-0.3,20.5-0.1,16.5,20.1
	c-6.6,33.8-14.7,67.4-19.3,101.5c-2.7,19.8-10.8,25.8-28.8,22C1327,816.4,1323.6,817,1318.6,817z"/>
<path class="st5" d="M491.2,766.8c-30.4,14.8-60.6,28.5-95,19.1c-9.9-2.7-21.1-5.9-21.6-18c-0.6-13.5,11.3-16.8,21.7-19.7
	C430.7,738.4,460.8,752.8,491.2,766.8z"/>
<path class="st3" d="M617.1,767c33.8-14.8,64.3-28.4,99.1-18.8c10.2,2.8,22.1,5.8,21.4,19.6c-0.5,12.4-11.5,15.5-21.3,18
	C681.5,795.2,650.9,781.9,617.1,767z"/>
<path class="st3" d="M523.7,710.2c-24.9-17.1-48.1-34.7-59.8-63.2c-3-7.3-5.8-14.7-5.8-22.8c0-6.6,1.2-12.5,7-16.3
	c6.8-4.4,13.3-1.8,18.7,2.3c5.7,4.4,11.1,9.6,15.5,15.4C518.2,650.4,522,679.9,523.7,710.2z"/>
<path class="st3" d="M526.3,819.4c-5.1,39.2-9.3,73.3-35.8,99.1c-6.9,6.7-14.9,13.8-25.2,7.6c-10-6.1-8.4-16.8-5.9-26.1
	C468.6,864.1,495.4,843.3,526.3,819.4z"/>
<path class="st3" d="M586.9,713.4c3.7-37,8.4-69.5,32.5-95.3c7.3-7.8,15.8-16.9,27.5-10.1c11.6,6.7,8.3,19.3,5.4,29.2
	C642.2,671,616.8,691.8,586.9,713.4z"/>
<path class="st3" d="M586.8,820.7c30.5,21.7,56,43,65.9,77.5c2.7,9.3,5.4,21.3-5.5,27.8c-11.8,6.9-20.2-2.1-27.5-9.8
	C595.2,890.5,590.8,857.7,586.8,820.7z"/>
<path class="st6" d="M760.9,767.1c37.2-8.9,74.3-17.2,112.7-12.4c4.4,0.5,8.8,1.4,13.1,2.5c5.1,1.3,9.5,3.6,9.7,10
	c0.3,7.5-5.3,9.8-10.6,11.1c-13.1,3.2-26.5,4.5-40,3.5C817.1,779.8,788.7,775.9,760.9,767.1z"/>
<path class="st7" d="M657.1,948.4c30,28.6,57.4,59.6,72.1,99.5c2.3,6.3,4.6,13.9-2.9,18.2c-7.8,4.5-12.6-2.3-16.7-7.2
	c-18.9-22.2-30.2-48.5-40.1-75.7C665.1,971.6,661.2,960,657.1,948.4z"/>
<path class="st6" d="M351.6,765c-37.4,11-74.5,18.8-113,14.3c-3.9-0.5-7.9-0.7-11.6-1.9c-5.2-1.6-11.4-2.8-11.4-10.3
	c0-8.1,6.3-10.1,12.3-11.6c26-6.2,52-3.1,77.8,0.8C321.1,758.7,336.3,762,351.6,765z"/>
<path class="st7" d="M659.3,587.3c10.7-39.6,24.1-77.8,49.7-110.5c4.6-5.9,10.6-12.2,18.3-7.5c7.8,4.8,4.4,13.3,1.8,19.9
	C713.8,527.7,687.5,558.1,659.3,587.3z"/>
<path class="st7" d="M453.4,946.5c-10.9,39.2-23.9,77.4-49.1,109.8c-4.8,6.2-10.7,13.8-19.4,8.3c-8-5-3.8-13.3-1.2-19.9
	C398.7,1006.2,425.3,975.9,453.4,946.5z"/>
<path class="st7" d="M453.6,586.4c-26.8-27.3-51.5-56.1-66.9-91.9c-2-4.6-3.5-9.5-4.9-14.4c-1.4-4.8,0.2-8.8,4.2-11.8
	c4.8-3.6,8.7-0.8,11.9,2.2c4.8,4.6,9.5,9.6,13.3,15.1C432.1,516,443.7,550.6,453.6,586.4z"/>
<path class="st6" d="M604.2,950.4c18.5,31.5,34.1,64.3,38.9,101c0.9,6.9,2.9,16.6-5.9,19.2c-10.1,3.1-12.9-7.2-15.8-14
	C607.2,1023,606.3,986.8,604.2,950.4z"/>
<path class="st6" d="M605,582.9c-0.1-35.5,2.9-70.6,15.8-104c2.8-7.2,5.8-18.8,16.4-15.5c10.2,3.2,6.9,14.6,5.7,22.3
	C637.4,520.8,622.6,552.3,605,582.9z"/>
<path class="st6" d="M507.6,582.3c-19.1-31.4-32.6-64.6-39-100.5c-1.4-7.9-0.4-15.8,7-18.5c8.2-3,11.5,5.5,14.1,11.4
	C504.8,508.9,507.2,545.4,507.6,582.3z"/>
<path class="st7" d="M736.1,818.1c39.3-1.7,77.7,0.2,113.3,18.3c4.8,2.4,8.2,6.3,6.9,12.3c-1.5,6.7-7.7,6.5-12.3,6.3
	c-18.7-0.5-36.5-5.7-53.6-12.8C772.1,834.7,754.1,826.2,736.1,818.1z"/>
<path class="st6" d="M507.3,951.8c0.8,35-2.9,69.4-15.2,102.4c-1.4,3.7-3.1,7.3-5.3,10.5c-2.5,3.6-5.4,8-10.7,6.6
	c-5.6-1.5-7.2-6.6-7.3-12c-0.2-13.2,3.4-25.8,7.1-38.1C483.1,996.8,493.7,973.8,507.3,951.8z"/>
<path class="st7" d="M739.3,717.5c31.4-17.9,63.3-34.8,100.1-37.9c6.2-0.5,14.6-2.8,16.7,6.3c1.9,8.5-5.5,11.6-11.6,14.3
	C811.2,715,775.6,717.1,739.3,717.5z"/>
<path class="st5" d="M422.9,632.3c-31.2-18.6-61.2-38.9-83.2-68.8c-3.9-5.3-9.9-12.9-5.4-17.8c5.9-6.6,14.8-2.6,21.3,2.6
	C384,571,404.9,600.2,422.9,632.3z"/>
<path class="st7" d="M689,632.8c17.9-31.4,38.2-60.7,66.4-83.3c5.9-4.7,13.5-11.9,20.6-4.6c7,7.2-0.2,14.9-4.9,20.8
	C748.7,594.1,720.2,615,689,632.8z"/>
<path class="st5" d="M689,901.2c31.6,18.2,60.8,39.4,83.4,68.5c4.3,5.5,10.3,12.9,3.7,19.5c-6.6,6.7-13.8,0.5-19.4-3.8
	C727.7,962.8,707.2,933,689,901.2z"/>
<path class="st7" d="M374.3,816.3c-31.8,17.8-63.9,34.6-100.8,38.1c-6.3,0.6-14.9,2.9-17.2-5.7c-2.5-9.4,6.1-12.4,12.6-15.3
	C302.4,819,338.1,816.5,374.3,816.3z"/>
<path class="st7" d="M423,901.6c-16.5,30.5-36.9,57.9-62.8,80.6c-3.3,2.9-7.1,5.7-11.2,7.4c-4.6,2.1-10,3.5-13.8-1.5
	c-3.3-4.3-0.9-8.7,1.4-12.6c8.7-14.8,21-26.4,33.8-37.4C386.5,924.1,403.9,911.9,423,901.6z"/>
<path class="st7" d="M374.3,717.7c-34.1,0-67.6-2.3-99.3-14.5c-8.3-3.2-21.8-5.5-18.3-17.8c3.1-10.7,15.4-6.3,23.7-5
	C314.4,685.5,344.7,700.6,374.3,717.7z"/>
<path class="st8" d="M1419,792.5c-0.4,16.8-10.4,27.2-22.6,26.5c-12.2-0.6-19.8-7.3-20.3-20.2c-0.4-12.9,10.9-24.1,23.8-23.1
	C1412.2,776.7,1419.1,783.6,1419,792.5z"/>
<path class="st9" d="M556.3,749.8c10.7,1.5,16.9,7.1,16.5,18.1c-0.4,10.2-6.8,15.9-16.2,16c-10.5,0.1-17.2-6.4-17.2-16.9
	C539.4,756.4,546.4,750.9,556.3,749.8z"/>
<path class="st1" d="M1550.5,727.9c-12.4-16.2-29.3-20-54.3-11.6c-4.1,1.4-5.4,0.3-9.1-2c-11-6.8-32.9-1.5-34.6,6.9
	c-8.9,43.8-17.5,87.6-26.2,131.4c7,3.3,14,0.8,20.4,2c13.1,2.3,17.4-4,19.1-16.3c1.4-10.3,2.2-21.2,7.3-30.9
	c26,19.7,59.4,13.6,77.4-14C1563.5,773.6,1563.4,744.9,1550.5,727.9z M1498.6,789.2c-12.6-0.2-20-8.8-19.1-22.1
	c1.1-16.3,12.2-27.1,26.6-26.1c11.8,0.9,17.6,8.4,17.1,22.1C1522.5,778.7,1512.4,789.4,1498.6,789.2z"/>
<path class="st1" d="M1670.3,714.1c-4.1,0.5-7.9,0.3-9,5.5c-1.3,6.2-3.6,2.6-6.6,1c-32.4-18-67.3-4.4-79.6,30.9
	c-12.5,36.1,9,71.2,43.1,67.5c14.6-1.6,28.5-4.1,39.5,0.2c20,0,20,0,22.9-14.5c4.4-21.6,9-43.2,13.3-64.8
	C1699.5,712.3,1698.4,711.1,1670.3,714.1z M1627.3,789.9c-13.4-0.4-18.6-8.2-18.4-20.8c0.3-16.3,11.2-28.3,25.2-27.6
	c13.1,0.6,18.1,9,18.8,19.6C1652.3,779.1,1641.7,790.3,1627.3,789.9z"/>
<path class="st10" d="M1123.8,711.8c-35.8-0.6-65.6,27.1-65.4,60.9c0.2,28.3,22.1,47.5,54.1,47.6c36.6,0,63.2-24.8,63.6-59.5
	C1176.6,731.6,1156,712.4,1123.8,711.8z M1114.6,790.7c-12.9-0.6-18.9-8.5-18.9-21c0-15.7,11.7-28.4,25.2-28.1
	c12.3,0.2,18.9,8.6,18.2,22.9C1138.4,780.3,1128.3,791.4,1114.6,790.7z"/>
</svg>
