<svg xmlns="http://www.w3.org/2000/svg" viewBox="0 0 680.81 608.89"><defs><style>.cls-1{fill:#cfcf17;}.cls-2{fill:#cfcf16;}.cls-3{fill:#cfcf18;}.cls-4{fill:#d0d019;}.cls-5{fill:#d0d018;}.cls-6{fill:#cfcf2a;}</style></defs><g id="Layer_2" data-name="Layer 2"><g id="Layer_1-2" data-name="Layer 1"><path class="cls-1" d="M340.2,370.12c9.7,28.3,12.4,52.7,16,76.8,5.2,35.2,8.5,70.7,4.5,106.5-1.1,9.6-2.7,19-6.6,27.8-2.7,6.1-6.7,10.4-13.9,10.3s-11.1-4.8-13.4-10.9c-2.4-6.3-5.3-12.7-5.9-19.2C315,498.12,323.7,436.32,340.2,370.12Z"/><path class="cls-1" d="M401.5,268.92c46.5-45.3,94.6-88,155.8-111.8a77.34,77.34,0,0,1,9.7-2.8c7.8-2.1,14.6-.4,19.3,6.5s.9,12.9-3.5,18.4c-11.4,14.4-26.8,23.9-41.9,33.5C497.9,239.82,450.1,255,401.5,268.92Z"/><path class="cls-1" d="M280.3,270.22c-60.1-18.9-119.9-37.6-169.5-78.5-9.1-7.6-23.1-16-15.5-30.1,8.4-15.6,22.9-6.4,34.3-2.1,41.4,15.8,76.1,42.7,109.6,71C253.8,242.62,269.3,253.92,280.3,270.22Z"/><path class="cls-2" d="M402.3,337.62c21.8,7.7,44,14.5,65.4,23.3,35.8,14.7,71.5,29.9,102,54.7,9.9,8,23.7,17.1,15.9,31.7-8.4,15.7-23.3,5.9-34.4,1.6-42-16-77.2-43.3-111.3-72.1C426.4,365.42,412.1,354.62,402.3,337.62Z"/><path class="cls-1" d="M340.8,233.42c-8.6-23.4-12.2-47.8-15.8-72.1-5.9-39.7-9.5-79.7-2.1-119.7a54.4,54.4,0,0,1,2.6-9.8c2.6-7.2,6.4-14.2,14.9-14.2,9.2,0,13.6,7.4,15.9,15.3,5.6,19.2,6.7,39.2,6.2,59C361.3,139.82,353.6,186.92,340.8,233.42Z"/><path class="cls-2" d="M279.4,337.42c-16.1,22-36.1,38.2-56.3,54.2-24.9,19.7-50.4,38.6-79.5,51.7-6.1,2.8-12.2,6.2-18.6,7.7-10.3,2.4-23,9.9-30-3.9-6.5-12.8,3.9-21.2,12.5-28.3,31.5-26.3,68.3-42.8,105.8-57.9C234.9,352.12,257.3,345.12,279.4,337.42Z"/><path class="cls-3" d="M275.6,304.12c-30.4,14.8-60.6,28.5-95,19.1-9.9-2.7-21.1-5.9-21.6-18-.6-13.5,11.3-16.8,21.7-19.7C215.1,275.72,245.2,290.12,275.6,304.12Z"/><path class="cls-1" d="M401.5,304.32c33.8-14.8,64.3-28.4,99.1-18.8,10.2,2.8,22.1,5.8,21.4,19.6-.5,12.4-11.5,15.5-21.3,18C465.9,332.52,435.3,319.22,401.5,304.32Z"/><path class="cls-1" d="M308.1,247.52c-24.9-17.1-48.1-34.7-59.8-63.2-3-7.3-5.8-14.7-5.8-22.8,0-6.6,1.2-12.5,7-16.3,6.8-4.4,13.3-1.8,18.7,2.3a83.7,83.7,0,0,1,15.5,15.4C302.6,187.72,306.4,217.22,308.1,247.52Z"/><path class="cls-1" d="M310.7,356.72c-5.1,39.2-9.3,73.3-35.8,99.1-6.9,6.7-14.9,13.8-25.2,7.6-10-6.1-8.4-16.8-5.9-26.1C253,401.42,279.8,380.62,310.7,356.72Z"/><path class="cls-1" d="M371.3,250.72c3.7-37,8.4-69.5,32.5-95.3,7.3-7.8,15.8-16.9,27.5-10.1s8.3,19.3,5.4,29.2C426.6,208.32,401.2,229.12,371.3,250.72Z"/><path class="cls-1" d="M371.2,358c30.5,21.7,56,43,65.9,77.5,2.7,9.3,5.4,21.3-5.5,27.8-11.8,6.9-20.2-2.1-27.5-9.8C379.6,427.82,375.2,395,371.2,358Z"/><path class="cls-4" d="M545.3,304.42c37.2-8.9,74.3-17.2,112.7-12.4a97.61,97.61,0,0,1,13.1,2.5c5.1,1.3,9.5,3.6,9.7,10,.3,7.5-5.3,9.8-10.6,11.1a128.17,128.17,0,0,1-40,3.5C601.5,317.12,573.1,313.22,545.3,304.42Z"/><path class="cls-5" d="M441.5,485.72c30,28.6,57.4,59.6,72.1,99.5,2.3,6.3,4.6,13.9-2.9,18.2-7.8,4.5-12.6-2.3-16.7-7.2-18.9-22.2-30.2-48.5-40.1-75.7C449.5,508.92,445.6,497.32,441.5,485.72Z"/><path class="cls-4" d="M136,302.32c-37.4,11-74.5,18.8-113,14.3-3.9-.5-7.9-.7-11.6-1.9-5.2-1.6-11.4-2.8-11.4-10.3,0-8.1,6.3-10.1,12.3-11.6,26-6.2,52-3.1,77.8.8C105.5,296,120.7,299.32,136,302.32Z"/><path class="cls-5" d="M443.7,124.62c10.7-39.6,24.1-77.8,49.7-110.5,4.6-5.9,10.6-12.2,18.3-7.5s4.4,13.3,1.8,19.9C498.2,65,471.9,95.42,443.7,124.62Z"/><path class="cls-5" d="M237.8,483.82c-10.9,39.2-23.9,77.4-49.1,109.8-4.8,6.2-10.7,13.8-19.4,8.3-8-5-3.8-13.3-1.2-19.9C183.1,543.52,209.7,513.22,237.8,483.82Z"/><path class="cls-5" d="M238,123.72c-26.8-27.3-51.5-56.1-66.9-91.9a116.16,116.16,0,0,1-4.9-14.4c-1.4-4.8.2-8.8,4.2-11.8,4.8-3.6,8.7-.8,11.9,2.2a100.58,100.58,0,0,1,13.3,15.1C216.5,53.32,228.1,87.92,238,123.72Z"/><path class="cls-4" d="M388.6,487.72c18.5,31.5,34.1,64.3,38.9,101,.9,6.9,2.9,16.6-5.9,19.2-10.1,3.1-12.9-7.2-15.8-14C391.6,560.32,390.7,524.12,388.6,487.72Z"/><path class="cls-4" d="M389.4,120.22c-.1-35.5,2.9-70.6,15.8-104C408,9,411-2.58,421.6.72c10.2,3.2,6.9,14.6,5.7,22.3C421.8,58.12,407,89.62,389.4,120.22Z"/><path class="cls-4" d="M292,119.62c-19.1-31.4-32.6-64.6-39-100.5-1.4-7.9-.4-15.8,7-18.5,8.2-3,11.5,5.5,14.1,11.4C289.2,46.22,291.6,82.72,292,119.62Z"/><path class="cls-5" d="M520.5,355.42c39.3-1.7,77.7.2,113.3,18.3,4.8,2.4,8.2,6.3,6.9,12.3-1.5,6.7-7.7,6.5-12.3,6.3-18.7-.5-36.5-5.7-53.6-12.8C556.5,372,538.5,363.52,520.5,355.42Z"/><path class="cls-4" d="M291.7,489.12c.8,35-2.9,69.4-15.2,102.4a49.26,49.26,0,0,1-5.3,10.5c-2.5,3.6-5.4,8-10.7,6.6-5.6-1.5-7.2-6.6-7.3-12-.2-13.2,3.4-25.8,7.1-38.1A284.86,284.86,0,0,1,291.7,489.12Z"/><path class="cls-5" d="M523.7,254.82c31.4-17.9,63.3-34.8,100.1-37.9,6.2-.5,14.6-2.8,16.7,6.3,1.9,8.5-5.5,11.6-11.6,14.3C595.6,252.32,560,254.42,523.7,254.82Z"/><path class="cls-3" d="M207.3,169.62c-31.2-18.6-61.2-38.9-83.2-68.8-3.9-5.3-9.9-12.9-5.4-17.8,5.9-6.6,14.8-2.6,21.3,2.6C168.4,108.32,189.3,137.52,207.3,169.62Z"/><path class="cls-5" d="M473.4,170.12c17.9-31.4,38.2-60.7,66.4-83.3,5.9-4.7,13.5-11.9,20.6-4.6s-.2,14.9-4.9,20.8C533.1,131.42,504.6,152.32,473.4,170.12Z"/><path class="cls-3" d="M473.4,438.52c31.6,18.2,60.8,39.4,83.4,68.5,4.3,5.5,10.3,12.9,3.7,19.5s-13.8.5-19.4-3.8C512.1,500.12,491.6,470.32,473.4,438.52Z"/><path class="cls-5" d="M158.7,353.62c-31.8,17.8-63.9,34.6-100.8,38.1-6.3.6-14.9,2.9-17.2-5.7-2.5-9.4,6.1-12.4,12.6-15.3C86.8,356.32,122.5,353.82,158.7,353.62Z"/><path class="cls-5" d="M207.4,438.92c-16.5,30.5-36.9,57.9-62.8,80.6a41.92,41.92,0,0,1-11.2,7.4c-4.6,2.1-10,3.5-13.8-1.5-3.3-4.3-.9-8.7,1.4-12.6,8.7-14.8,21-26.4,33.8-37.4A288.53,288.53,0,0,1,207.4,438.92Z"/><path class="cls-5" d="M158.7,255c-34.1,0-67.6-2.3-99.3-14.5-8.3-3.2-21.8-5.5-18.3-17.8,3.1-10.7,15.4-6.3,23.7-5C98.8,222.82,129.1,237.92,158.7,255Z"/><path class="cls-6" d="M340.7,287.12c10.7,1.5,16.9,7.1,16.5,18.1-.4,10.2-6.8,15.9-16.2,16-10.5.1-17.2-6.4-17.2-16.9S330.8,288.22,340.7,287.12Z"/></g></g></svg>